{
    "asset" : {
        "generator" : "Khronos glTF Blender I/O v1.5.17",
        "version" : "2.0"
    },
    "scene" : 0,
    "scenes" : [
        {
            "name" : "Scene",
            "nodes" : [
                0,
                1,
                2
            ]
        }
    ],
    "nodes" : [
        {
            "name" : "Light",
            "rotation" : [
                0.16907575726509094,
                0.7558803558349609,
                -0.27217137813568115,
                0.570947527885437
            ],
            "translation" : [
                4.076245307922363,
                5.903861999511719,
                -1.0054539442062378
            ]
        },
        {
            "name" : "Camera",
            "rotation" : [
                -0.5515559911727905,
                -0.27870845794677734,
                0.20234298706054688,
                -0.7597138285636902
            ],
            "translation" : [
                6.318865776062012,
                3.191046953201294,
                7.423210620880127
            ]
        },
        {
            "mesh" : 0,
            "name" : "Icosphere"
        }
    ],
    "materials" : [
        {
            "doubleSided" : true,
            "name" : "Material.001",
            "pbrMetallicRoughness" : {
                "baseColorFactor" : [
                    0.3672376573085785,
                    0.012696539051830769,
                    0.025363942608237267,
                    1
                ],
                "metallicFactor" : 0.20000000298023224,
                "roughnessFactor" : 0.5
            }
        },
        {
            "doubleSided" : true,
            "emissiveFactor" : [
                0.22887074947357178,
                0.2189234048128128,
                0.4172738194465637
            ],
            "name" : "Material.002",
            "pbrMetallicRoughness" : {
                "metallicFactor" : 0,
                "roughnessFactor" : 0.5
            }
        }
    ],
    "meshes" : [
        {
            "name" : "Icosphere",
            "primitives" : [
                {
                    "attributes" : {
                        "POSITION" : 0,
                        "NORMAL" : 1,
                        "TEXCOORD_0" : 2
                    },
                    "indices" : 3,
                    "material" : 0
                },
                {
                    "attributes" : {
                        "POSITION" : 4,
                        "NORMAL" : 5,
                        "TEXCOORD_0" : 6
                    },
                    "indices" : 7,
                    "material" : 1
                }
            ]
        }
    ],
    "accessors" : [
        {
            "bufferView" : 0,
            "componentType" : 5126,
            "count" : 17065,
            "max" : [
                1.25,
                1.25,
                1.25
            ],
            "min" : [
                -1.25,
                -1.25,
                -1.25
            ],
            "type" : "VEC3"
        },
        {
            "bufferView" : 1,
            "componentType" : 5126,
            "count" : 17065,
            "type" : "VEC3"
        },
        {
            "bufferView" : 2,
            "componentType" : 5126,
            "count" : 17065,
            "type" : "VEC2"
        },
        {
            "bufferView" : 3,
            "componentType" : 5123,
            "count" : 74856,
            "type" : "SCALAR"
        },
        {
            "bufferView" : 4,
            "componentType" : 5126,
            "count" : 21819,
            "max" : [
                1.2403970956802368,
                1.2457458972930908,
                1.2403966188430786
            ],
            "min" : [
                -1.240396499633789,
                -1.2403972148895264,
                -1.2403966188430786
            ],
            "type" : "VEC3"
        },
        {
            "bufferView" : 5,
            "componentType" : 5126,
            "count" : 21819,
            "type" : "VEC3"
        },
        {
            "bufferView" : 6,
            "componentType" : 5126,
            "count" : 21819,
            "type" : "VEC2"
        },
        {
            "bufferView" : 7,
            "componentType" : 5123,
            "count" : 116928,
            "type" : "SCALAR"
        }
    ],
    "bufferViews" : [
        {
            "buffer" : 0,
            "byteLength" : 204780,
            "byteOffset" : 0
        },
        {
            "buffer" : 0,
            "byteLength" : 204780,
            "byteOffset" : 204780
        },
        {
            "buffer" : 0,
            "byteLength" : 136520,
            "byteOffset" : 409560
        },
        {
            "buffer" : 0,
            "byteLength" : 149712,
            "byteOffset" : 546080
        },
        {
            "buffer" : 0,
            "byteLength" : 261828,
            "byteOffset" : 695792
        },
        {
            "buffer" : 0,
            "byteLength" : 261828,
            "byteOffset" : 957620
        },
        {
            "buffer" : 0,
            "byteLength" : 174552,
            "byteOffset" : 1219448
        },
        {
            "buffer" : 0,
            "byteLength" : 233856,
            "byteOffset" : 1394000
        }
    ],
    "buffers" : [
        {
            "byteLength" : 1627856,
            "uri" : "data:application/octet-stream;base64,"
        }
    ]
}
